# xmcd CD database file
#
# Track frame offsets:
#	150
#	1615
#	18485
#	35247
#	52185
#	92595
#
# Disc length: 1405 seconds
#
# Revision: 18
# Processed by: cddbd v1.5.1PL2 Copyright (c) Steve Scherf et al.
# Submitted via: CDex 1.60beta1
#
DISCID=42057b06
DTITLE=図書館探検部(桑谷夏子、石毛佐和、能登麻美子) - 魔法先生ネギま！ 麻帆良学園中等部2-A 6月:図書館探検部
DYEAR=2004
DGENRE=Anime
TTITLE0=Tankenbu's Voice
TTITLE1=Invitation〜図書館へいらっしゃい〜
TTITLE2=Invitation〜図書館へいらっしゃい〜 (Remix ver.)
TTITLE3=Invitation〜図書館へいらっしゃい〜 (Instrumental ver)
TTITLE4=図書館探検部ミニドラマ 「ライブラリー・エクスプローラー」
TTITLE5=キャストフリートーク
EXTD=YEAR: 2004
EXTT0=
EXTT1=
EXTT2=
EXTT3=
EXTT4=
EXTT5=
PLAYORDER=
